<svg width="25" height="24" viewBox="0 0 25 24" fill="none" xmlns="http://www.w3.org/2000/svg">
<path d="M2.21429 15.4286V17.1429H6.14514L0.5 22.788L1.712 24L7.35714 18.3549V22.2857H9.07143V15.4286H2.21429ZM19.3571 16.2857H21.0714V20.5714H19.3571V16.2857ZM15.9286 12H17.6429V20.5714H15.9286V12ZM12.5 13.7143H14.2143V20.5714H12.5V13.7143Z" fill="black"/>
<path d="M22.7857 0H2.21429C1.75977 0.000453837 1.324 0.181211 1.0026 0.502604C0.681211 0.823996 0.500454 1.25977 0.5 1.71429V12H2.21429V9.42857H22.7866L22.7874 22.2857H12.5V24H22.7857C23.2402 23.9993 23.6758 23.8185 23.9971 23.4971C24.3185 23.1758 24.4993 22.7402 24.5 22.2857V1.71429C24.4995 1.25977 24.3188 0.823996 23.9974 0.502604C23.676 0.181211 23.2402 0.000453837 22.7857 0ZM9.07143 7.71429H2.21429V1.71429H9.07143V7.71429ZM10.7857 7.71429V1.71429H22.7857V7.71429H10.7857Z" fill="black"/>
</svg>
